<svg width="81" height="80" viewBox="0 0 81 80" fill="none" xmlns="http://www.w3.org/2000/svg">
<path opacity="0.3" d="M80.5 40C80.5 62.0914 62.5914 80 40.5 80C18.4086 80 0.5 62.0914 0.5 40C0.5 17.9086 18.4086 0 40.5 0C62.5914 0 80.5 17.9086 80.5 40ZM11.4071 40C11.4071 56.0675 24.4325 69.0929 40.5 69.0929C56.5675 69.0929 69.5929 56.0675 69.5929 40C69.5929 23.9325 56.5675 10.9071 40.5 10.9071C24.4325 10.9071 11.4071 23.9325 11.4071 40Z" fill="#2F2E30"/>
<circle cx="40.5" cy="40" r="29" fill="#F16791"/>
<g clip-path="url(#clip0_2028_12842)">
<path d="M33.8327 45C33.8327 43.1591 32.3403 41.6667 30.4993 41.6667C28.6584 41.6667 27.166 43.1591 27.166 45V48.3334C27.166 50.1743 28.6584 51.6667 30.4993 51.6667C32.3403 51.6667 33.8327 50.1743 33.8327 48.3334V45Z" stroke="white" stroke-width="2" stroke-linecap="round" stroke-linejoin="round"/>
<path d="M53.8327 45C53.8327 43.1591 52.3403 41.6667 50.4993 41.6667C48.6584 41.6667 47.166 43.1591 47.166 45V48.3334C47.166 50.1743 48.6584 51.6667 50.4993 51.6667C52.3403 51.6667 53.8327 50.1743 53.8327 48.3334V45Z" stroke="white" stroke-width="2" stroke-linecap="round" stroke-linejoin="round"/>
<path d="M27.166 45V40C27.166 36.4638 28.5708 33.0724 31.0713 30.5719C33.5717 28.0714 36.9631 26.6667 40.4993 26.6667C44.0356 26.6667 47.427 28.0714 49.9274 30.5719C52.4279 33.0724 53.8327 36.4638 53.8327 40V45" stroke="white" stroke-width="2" stroke-linecap="round" stroke-linejoin="round"/>
<path d="M50.5 51.6667C50.5 52.9928 49.4464 54.2645 47.5711 55.2022C45.6957 56.1399 43.1522 56.6667 40.5 56.6667" stroke="white" stroke-width="2" stroke-linecap="round" stroke-linejoin="round"/>
</g>
<defs>
<clipPath id="clip0_2028_12842">
<rect width="40" height="40" fill="white" transform="translate(20.5 20)"/>
</clipPath>
</defs>
</svg>
