<svg width="1278" height="489" viewBox="0 0 1278 489" fill="none" xmlns="http://www.w3.org/2000/svg">
<path opacity="0.5" d="M1238.5 73.2617C1252.98 329.756 1280.76 472.917 1280.39 0.91995L-0.000106694 0.98632C-0.00905317 161.466 37.8086 595.841 128.979 385.31C131.707 379.009 185.5 111.601 248.99 172.18C292.488 213.683 232.095 546.576 365.975 452.919C433.977 405.348 408.901 158.648 429.488 224.869C530.969 551.312 505.34 160.781 586.488 224.861C613.283 246.02 579.669 488.818 689.473 488.812C774.973 488.808 654.066 108.213 785.992 135.777C858.503 150.926 736.543 406.405 853.479 373.147C935.481 349.825 845.579 205.769 937.986 250.025C986.985 273.491 859.458 81.5444 963.495 81.5391C1011.5 81.5366 953.495 91.4643 972.983 298.058C989.076 468.657 1040.98 381.532 1044.49 202.918C1031.99 162.346 1082.99 148.819 1057.98 310.645C1050.52 358.93 1113.05 354.663 1120.98 275.666C1124.39 226.767 1146.42 68.9571 1191.09 81.5273C1201.5 84.4561 1175.99 170.267 1205.49 170.265C1268.71 170.262 1209 66.2679 1238.5 73.2617Z" fill="#E786A7"/>
</svg>
